<svg version="1.1" id="Layer_1" xmlns="http://www.w3.org/2000/svg" xmlns:xlink="http://www.w3.org/1999/xlink" x="0px" y="0px"
	 width="100%" viewBox="0 0 456 124" enable-background="new 0 0 456 124" xml:space="preserve">
<path fill="#FDFEFE" opacity="1.000000" stroke="none" 
	d="
M324.000000,125.000000 
	C216.000031,125.000000 108.500061,125.000000 1.000072,125.000000 
	C1.000048,83.666710 1.000048,42.333424 1.000024,1.000100 
	C152.999908,1.000067 304.999817,1.000067 456.999817,1.000033 
	C456.999878,42.333233 456.999878,83.666466 456.999939,124.999847 
	C412.833344,125.000000 368.666656,125.000000 324.000000,125.000000 
M239.904907,86.608635 
	C240.280182,86.767044 240.655441,86.925461 241.869965,87.247955 
	C243.573868,87.185349 245.277756,87.122742 247.498535,87.162727 
	C247.664398,87.104912 247.830261,87.047089 248.728210,86.545296 
	C248.728210,74.623123 248.728210,62.700954 248.728210,50.212017 
	C253.453156,50.212017 257.519196,50.212017 261.756287,50.212017 
	C261.756287,47.247929 261.756287,44.859661 261.756287,42.269478 
	C249.917160,42.269478 238.370529,42.269478 226.574783,42.269478 
	C226.574783,44.918247 226.574783,47.310349 226.574783,50.209908 
	C230.945526,50.209908 235.020172,50.209908 239.873871,50.209908 
	C239.873871,62.458344 239.873871,74.206451 239.904907,86.608635 
M110.994156,72.758530 
	C112.942650,81.299065 118.339203,85.988083 127.660675,87.538994 
	C133.210159,87.949051 138.853348,89.354454 144.208908,85.071373 
	C144.162018,79.049011 144.115128,73.026657 144.034805,66.212891 
	C141.208694,65.019356 138.398422,63.987469 135.846130,67.921288 
	C135.846130,71.839195 135.846130,75.757095 135.846130,79.588776 
	C125.428131,80.500481 120.586800,76.625648 119.936607,67.562035 
	C119.073906,55.535976 123.140854,49.999283 133.206955,49.626930 
	C136.444336,49.507175 139.689896,49.608162 142.827164,49.608162 
	C142.827164,47.264088 142.827164,45.020535 142.827164,41.822189 
	C138.058792,41.822189 133.595673,41.498425 129.196976,41.892929 
	C121.252586,42.605434 114.777901,45.762962 111.609894,54.500103 
	C111.443382,55.329033 111.276871,56.157959 110.926300,57.466343 
	C110.931099,57.637466 110.935905,57.808586 110.575119,58.510197 
	C110.508659,59.347366 110.442207,60.184536 110.176575,61.874035 
	C110.232109,63.909328 110.287651,65.944626 110.189781,68.668777 
	C110.458473,69.779694 110.727173,70.890602 110.994156,72.758530 
M151.474869,45.067375 
	C151.474869,58.987442 151.474869,72.907509 151.474869,87.086174 
	C161.065262,87.086174 170.015976,87.086174 179.495087,87.177170 
	C179.666183,87.125473 179.837265,87.073784 180.721924,86.600235 
	C180.721924,84.330208 180.721924,82.060188 180.721924,79.194901 
	C174.043884,79.194901 167.652466,79.194901 161.166931,79.194901 
	C161.166931,75.222366 161.166931,71.857529 161.166931,67.994881 
	C166.777405,67.994881 172.013153,67.994881 177.291351,67.994881 
	C177.291351,65.103333 177.291351,62.727264 177.291351,59.874031 
	C171.631866,59.874031 166.385223,59.874031 161.216904,59.874031 
	C161.216904,56.348877 161.216904,53.315754 161.216904,50.009521 
	C164.792114,50.009521 167.935059,50.009521 171.077988,50.009521 
	C174.166519,50.009521 177.255035,50.009521 180.445831,50.009521 
	C180.445831,47.033733 180.445831,44.780533 180.445831,41.988716 
	C175.077103,41.988716 169.971237,41.876942 164.872726,42.022697 
	C160.485565,42.148117 156.106812,42.567310 151.580704,43.510704 
	C151.617477,43.730877 151.654251,43.951054 151.474869,45.067375 
M383.751740,42.155022 
	C381.306915,42.155022 378.862061,42.155022 375.866180,42.155022 
	C375.866180,51.486042 375.866180,60.614746 375.866180,69.743454 
	C370.143036,62.103813 365.355438,54.246010 360.567291,46.388531 
	C357.532440,41.408253 355.069122,40.687275 348.713531,43.500885 
	C348.765656,43.680893 348.817780,43.860901 348.616089,44.943851 
	C348.692566,58.286499 348.769073,71.629143 348.847290,85.773521 
	C350.685883,85.995102 352.527405,86.195312 354.362427,86.443169 
	C357.272797,86.836250 357.579071,85.250519 357.252045,82.076340 
	C357.179474,76.054619 357.106903,70.032898 357.195740,63.169792 
	C357.184509,61.457409 357.173309,59.745022 357.770752,58.315605 
	C363.417480,67.236946 369.064209,76.158279 374.929779,85.709892 
	C375.308899,85.863327 375.687988,86.016762 376.751343,86.465340 
	C377.477203,86.370972 378.203064,86.276604 379.703613,86.382164 
	C380.494507,86.312843 381.285431,86.243530 382.504700,86.463615 
	C383.096649,85.686867 383.688599,84.910110 384.508575,83.294586 
	C384.411682,69.826950 384.314758,56.359318 383.751740,42.155022 
M269.999390,85.615234 
	C270.336731,85.760529 270.674072,85.905823 271.695160,86.326508 
	C272.422455,86.338539 273.149719,86.350563 274.703979,86.692017 
	C275.885254,86.697853 277.066559,86.703682 278.979401,86.947067 
	C283.269135,86.649231 287.601257,86.629654 291.838013,85.984016 
	C297.292999,85.152733 301.498596,82.450798 302.696625,76.553940 
	C303.813049,71.059006 301.825287,67.297729 295.947144,63.580093 
	C301.085754,59.331425 302.692169,55.171467 301.037140,49.814690 
	C299.296082,44.179489 294.644958,42.303661 289.475494,42.009930 
	C284.382843,41.720562 279.243469,42.253925 273.478271,42.363846 
	C273.286560,42.464386 273.094879,42.564926 272.249176,42.540150 
	C271.834290,42.685448 271.419403,42.830742 270.416931,42.971817 
	C270.300964,43.309772 270.184998,43.647728 269.893585,44.910496 
	C269.948273,58.277012 270.002930,71.643532 269.999390,85.615234 
M186.537994,45.013599 
	C186.537994,58.940716 186.537994,72.867828 186.537994,87.082695 
	C189.404694,87.082695 191.688583,87.082695 194.573380,87.061104 
	C194.706955,86.710144 194.840530,86.359177 195.125198,85.080025 
	C195.125198,76.412178 195.125198,67.744339 195.125198,57.628162 
	C201.492142,67.954247 207.079315,77.015686 212.930008,86.644478 
	C213.296677,86.786667 213.663345,86.928856 214.937698,87.250381 
	C217.339142,87.250381 219.740570,87.250381 222.146637,87.250381 
	C222.146637,72.304039 222.146637,58.178692 222.248718,43.502560 
	C222.197357,43.323040 222.145996,43.143520 221.682648,42.254608 
	C219.128235,42.505081 216.573837,42.755554 213.880753,43.501324 
	C213.914337,43.669449 213.947906,43.837578 213.804871,44.928680 
	C213.804871,53.408154 213.804871,61.887627 213.804871,70.367096 
	C207.968292,62.552231 203.256729,54.572113 198.526947,46.602806 
	C195.396439,41.328148 193.440231,40.725254 186.631241,43.507549 
	C186.667633,43.707294 186.704010,43.907040 186.537994,45.013599 
M92.806458,77.675797 
	C94.434227,80.191086 95.579147,83.359108 97.833786,85.026955 
	C99.844994,86.514740 103.082825,86.344353 105.779350,86.905708 
	C105.482475,84.898949 105.700668,82.609398 104.785301,80.942215 
	C102.645958,77.045753 99.962433,73.448082 97.412033,69.597664 
	C98.553726,68.756569 99.338547,68.166351 100.135605,67.593140 
	C105.218468,63.937687 106.342537,58.871971 105.448524,53.012047 
	C104.590057,47.385124 101.231781,43.432964 95.903191,42.843170 
	C88.793785,42.056259 81.531715,42.648701 74.323402,42.648701 
	C74.323402,57.958466 74.323402,72.386391 74.323402,86.771812 
	C82.852592,87.998360 83.206482,87.707329 83.208679,79.725792 
	C83.209442,76.923409 83.208794,74.121025 83.208794,71.450851 
	C89.349152,69.047813 90.070274,74.273865 92.806458,77.675797 
M317.211853,43.501591 
	C313.786346,55.133301 310.349548,66.761703 306.939148,78.397835 
	C304.418427,86.998199 304.616913,87.219322 313.770874,86.156380 
	C314.551758,83.384995 315.143738,80.431221 316.265625,77.694679 
	C316.759369,76.490326 318.270355,74.992447 319.424225,74.897240 
	C323.533081,74.558243 327.686951,74.764786 331.968994,74.764786 
	C333.015503,78.244568 333.305664,81.908653 335.162720,84.408943 
	C336.345764,86.001732 339.851837,85.869125 342.316315,86.510170 
	C342.670532,85.140953 343.619965,83.603256 343.287445,82.428413 
	C339.713409,69.801361 335.971100,57.221218 332.152802,44.665352 
	C331.841370,43.641239 330.637787,42.142410 329.840759,42.137424 
	C325.765717,42.111950 321.688049,42.504528 317.211853,43.501591 
M32.783268,78.210991 
	C32.404991,79.485664 32.005234,80.754433 31.652346,82.036095 
	C30.456890,86.377838 31.341166,87.296341 35.719906,87.319229 
	C40.039890,87.341812 40.448753,84.135094 40.874508,81.314903 
	C41.598194,76.521156 43.806171,74.814857 48.803158,75.100739 
	C56.984150,75.568787 57.166607,75.170830 59.874512,83.659485 
	C61.153965,87.670280 64.038696,87.758507 66.967323,87.059418 
	C70.372360,86.246613 69.051697,83.521240 68.426178,81.338028 
	C65.497108,71.114861 62.549778,60.896885 59.584053,50.684288 
	C57.044308,41.938580 57.025089,42.129589 47.676350,41.915714 
	C44.178516,41.835690 42.788986,42.952213 41.902157,46.280506 
	C39.122185,56.713776 35.975555,67.049347 32.783268,78.210991 
M419.436401,52.959049 
	C421.640015,49.508369 423.843658,46.057686 426.121185,42.491287 
	C419.519867,40.826828 415.090149,42.335915 412.433929,48.452015 
	C411.059113,51.617634 408.977051,54.558495 406.785828,57.252186 
	C405.699371,58.587791 403.644073,59.135300 401.020569,60.602112 
	C401.020569,53.472363 401.020569,47.886906 401.020569,42.268974 
	C397.802979,42.268974 395.054199,42.268974 392.209198,42.268974 
	C392.209198,57.064266 392.209198,71.612343 392.209198,86.123955 
	C401.162964,87.121292 401.163025,87.121292 401.163422,78.601486 
	C401.163605,75.159531 401.163452,71.717575 401.163452,66.688171 
	C403.872040,68.438736 405.854187,69.148460 406.956421,70.550125 
	C409.313324,73.547325 411.513367,76.751320 413.234192,80.146088 
	C415.923553,85.451515 419.757935,87.862694 426.803070,85.937775 
	C424.219543,81.729988 422.218994,77.174255 419.077209,73.630226 
	C412.924591,66.689812 412.412720,60.273727 419.436401,52.959049 
z"/>
<path fill="#5EAF75" opacity="1.000000" stroke="none" 
	d="
M193.972473,87.082687 
	C191.688583,87.082695 189.404694,87.082695 186.537994,87.082695 
	C186.537994,72.867828 186.537994,58.940716 186.848602,44.455902 
	C187.252060,43.776447 187.444260,43.572502 187.422195,43.545849 
	C187.234528,43.319065 187.007904,43.124523 186.792953,42.920319 
	C193.440231,40.725254 195.396439,41.328148 198.526947,46.602806 
	C203.256729,54.572113 207.968292,62.552231 213.804871,70.367096 
	C213.804871,61.887627 213.804871,53.408154 214.062302,44.381020 
	C214.389618,43.729477 214.540894,43.565414 214.515945,43.531643 
	C214.373688,43.339249 214.189423,43.177917 214.019424,43.006027 
	C216.573837,42.755554 219.128235,42.505081 221.705566,42.713467 
	C221.867889,43.465996 222.007263,43.759666 222.146637,44.053337 
	C222.146637,58.178692 222.146637,72.304039 222.146637,87.250381 
	C219.740570,87.250381 217.339142,87.250381 214.331451,86.907181 
	C213.372284,86.401688 213.019394,86.239410 212.666489,86.077133 
	C207.079315,77.015686 201.492142,67.954247 195.125198,57.628162 
	C195.125198,67.744339 195.125198,76.412178 194.821564,85.658020 
	C194.336121,86.518234 194.154297,86.800461 193.972473,87.082687 
z"/>
<path fill="#294F35" opacity="1.000000" stroke="none" 
	d="
M273.877014,86.362595 
	C273.149719,86.350563 272.422455,86.338539 271.259338,85.961571 
	C270.644653,85.301361 270.389343,85.105827 270.057617,85.010048 
	C270.002930,71.643532 269.948273,58.277012 270.195007,44.340729 
	C270.753784,43.562225 270.923157,43.297253 271.004517,42.976040 
	C271.419403,42.830742 271.834290,42.685448 272.704590,42.826817 
	C273.481506,42.884426 273.803040,42.655365 274.124573,42.426308 
	C279.243469,42.253925 284.382843,41.720562 289.475494,42.009930 
	C294.644958,42.303661 299.296082,44.179489 301.037140,49.814690 
	C302.692169,55.171467 301.085754,59.331425 295.947144,63.580093 
	C301.825287,67.297729 303.813049,71.059006 302.696625,76.553940 
	C301.498596,82.450798 297.292999,85.152733 291.838013,85.984016 
	C287.601257,86.629654 283.269135,86.649231 278.431946,86.454994 
	C276.548645,86.096146 275.212830,86.229370 273.877014,86.362595 
M278.959595,75.377365 
	C279.054413,76.796776 279.149261,78.216187 279.251526,79.747108 
	C284.496613,79.732452 289.971069,82.086906 293.283752,76.715294 
	C294.243866,75.158478 294.115204,71.703629 292.998260,70.317322 
	C289.318115,65.749794 284.004425,67.860565 278.958771,67.401344 
	C278.958771,70.161522 278.958771,72.304077 278.959595,75.377365 
M279.765869,49.100616 
	C279.438538,52.723354 279.111206,56.346088 278.785675,59.948997 
	C282.386566,59.948997 285.050964,60.116989 287.685089,59.906349 
	C290.957031,59.644703 292.802979,57.762962 292.837982,54.366024 
	C292.874023,50.870468 290.788605,49.202446 287.627533,48.877361 
	C285.336700,48.641766 282.997986,48.871948 279.765869,49.100616 
z"/>
<path fill="#5CAE73" opacity="1.000000" stroke="none" 
	d="
M92.600693,77.371696 
	C90.070274,74.273865 89.349152,69.047813 83.208794,71.450851 
	C83.208794,74.121025 83.209442,76.923409 83.208679,79.725792 
	C83.206482,87.707329 82.852592,87.998360 74.323402,86.771812 
	C74.323402,72.386391 74.323402,57.958466 74.323402,42.648701 
	C81.531715,42.648701 88.793785,42.056259 95.903191,42.843170 
	C101.231781,43.432964 104.590057,47.385124 105.448524,53.012047 
	C106.342537,58.871971 105.218468,63.937687 100.135605,67.593140 
	C99.338547,68.166351 98.553726,68.756569 97.412033,69.597664 
	C99.962433,73.448082 102.645958,77.045753 104.785301,80.942215 
	C105.700668,82.609398 105.482475,84.898949 105.779350,86.905701 
	C103.082825,86.344353 99.844994,86.514740 97.833786,85.026955 
	C95.579147,83.359108 94.434227,80.191086 92.600693,77.371696 
M93.418221,62.388329 
	C97.588547,59.977909 97.977333,56.162598 96.044807,52.520733 
	C93.263573,47.279522 88.242546,48.981094 83.517456,49.257324 
	C83.517456,53.996452 83.517456,58.379517 83.517456,63.376690 
	C86.795479,63.151299 89.724304,62.949921 93.418221,62.388329 
z"/>
<path fill="#2A5036" opacity="1.000000" stroke="none" 
	d="
M348.845581,84.971802 
	C348.769073,71.629143 348.692566,58.286499 348.929047,44.399063 
	C349.327789,43.747337 349.503021,43.566025 349.485535,43.544979 
	C349.315674,43.340702 349.113525,43.163280 348.920593,42.978195 
	C355.069122,40.687275 357.532440,41.408253 360.567291,46.388531 
	C365.355438,54.246010 370.143036,62.103813 375.866180,69.743454 
	C375.866180,60.614746 375.866180,51.486042 375.866180,42.155022 
	C378.862061,42.155022 381.306915,42.155022 383.642761,42.791298 
	C383.395935,56.485744 383.244812,69.543839 383.169830,82.602379 
	C383.166901,83.110558 383.893707,83.622932 384.280518,84.133354 
	C383.688599,84.910110 383.096649,85.686867 382.107300,86.034813 
	C380.782898,85.798088 379.855896,85.990158 378.928925,86.182236 
	C378.203064,86.276604 377.477203,86.370972 376.262634,86.050919 
	C375.419556,85.450882 375.065247,85.265251 374.710907,85.079620 
	C369.064209,76.158279 363.417480,67.236946 357.149994,58.377441 
	C356.697601,60.296577 356.865967,62.153877 357.034332,64.011177 
	C357.106903,70.032898 357.179474,76.054619 356.825928,82.747742 
	C353.881714,83.936691 351.363647,84.454247 348.845581,84.971802 
z"/>
<path fill="#294F35" opacity="1.000000" stroke="none" 
	d="
M317.411560,43.126251 
	C321.688049,42.504528 325.765717,42.111950 329.840759,42.137424 
	C330.637787,42.142410 331.841370,43.641239 332.152802,44.665352 
	C335.971100,57.221218 339.713409,69.801361 343.287445,82.428413 
	C343.619965,83.603256 342.670532,85.140953 342.316284,86.510162 
	C339.851837,85.869125 336.345764,86.001732 335.162720,84.408943 
	C333.305664,81.908653 333.015503,78.244568 331.968994,74.764786 
	C327.686951,74.764786 323.533081,74.558243 319.424225,74.897240 
	C318.270355,74.992447 316.759369,76.490326 316.265625,77.694679 
	C315.143738,80.431221 314.551758,83.384995 313.770874,86.156380 
	C304.616913,87.219322 304.418427,86.998199 306.939148,78.397835 
	C310.349548,66.761703 313.786346,55.133301 317.411560,43.126251 
M322.507080,67.012802 
	C324.814880,67.012802 327.122650,67.012802 329.923370,67.012802 
	C328.179749,60.773769 326.560699,54.980526 324.592560,47.938126 
	C322.798828,54.215351 321.288544,59.124630 320.081573,64.107376 
	C319.888306,64.905190 321.052155,66.031738 322.507080,67.012802 
z"/>
<path fill="#5DAF74" opacity="1.000000" stroke="none" 
	d="
M32.877117,77.816879 
	C35.975555,67.049347 39.122185,56.713776 41.902157,46.280506 
	C42.788986,42.952213 44.178516,41.835690 47.676350,41.915714 
	C57.025089,42.129589 57.044308,41.938580 59.584053,50.684288 
	C62.549778,60.896885 65.497108,71.114861 68.426178,81.338028 
	C69.051697,83.521240 70.372360,86.246613 66.967323,87.059418 
	C64.038696,87.758507 61.153965,87.670280 59.874512,83.659485 
	C57.166607,75.170830 56.984150,75.568787 48.803158,75.100739 
	C43.806171,74.814857 41.598194,76.521156 40.874508,81.314903 
	C40.448753,84.135094 40.039890,87.341812 35.719906,87.319229 
	C31.341166,87.296341 30.456890,86.377838 31.652346,82.036095 
	C32.005234,80.754433 32.404991,79.485664 32.877117,77.816879 
M45.333664,64.993706 
	C45.853676,65.756065 46.317425,67.122040 46.903404,67.176659 
	C49.488449,67.417610 52.108700,67.280785 55.374298,67.280785 
	C53.665779,60.959850 52.143726,55.328781 50.621677,49.697712 
	C50.323914,49.668610 50.026154,49.639511 49.728390,49.610413 
	C48.352467,54.469875 46.976540,59.329338 45.333664,64.993706 
z"/>
<path fill="#264D32" opacity="1.000000" stroke="none" 
	d="
M419.248260,53.269699 
	C412.412720,60.273727 412.924591,66.689812 419.077209,73.630226 
	C422.218994,77.174255 424.219543,81.729988 426.803070,85.937775 
	C419.757935,87.862694 415.923553,85.451515 413.234192,80.146088 
	C411.513367,76.751320 409.313324,73.547325 406.956421,70.550125 
	C405.854187,69.148460 403.872040,68.438736 401.163452,66.688171 
	C401.163452,71.717575 401.163605,75.159531 401.163422,78.601486 
	C401.163025,87.121292 401.162964,87.121292 392.209198,86.123955 
	C392.209198,71.612343 392.209198,57.064266 392.209198,42.268974 
	C395.054199,42.268974 397.802979,42.268974 401.020569,42.268974 
	C401.020569,47.886906 401.020569,53.472363 401.020569,60.602112 
	C403.644073,59.135300 405.699371,58.587791 406.785828,57.252186 
	C408.977051,54.558495 411.059113,51.617634 412.433929,48.452015 
	C415.090149,42.335915 419.519867,40.826828 426.121185,42.491287 
	C423.843658,46.057686 421.640015,49.508369 419.248260,53.269699 
z"/>
<path fill="#65B27B" opacity="1.000000" stroke="none" 
	d="
M151.724335,42.856613 
	C156.106812,42.567310 160.485565,42.148117 164.872726,42.022697 
	C169.971237,41.876942 175.077103,41.988716 180.445831,41.988716 
	C180.445831,44.780533 180.445831,47.033733 180.445831,50.009521 
	C177.255035,50.009521 174.166519,50.009521 171.077988,50.009521 
	C167.935059,50.009521 164.792114,50.009521 161.216904,50.009521 
	C161.216904,53.315754 161.216904,56.348877 161.216904,59.874031 
	C166.385223,59.874031 171.631866,59.874031 177.291351,59.874031 
	C177.291351,62.727264 177.291351,65.103333 177.291351,67.994881 
	C172.013153,67.994881 166.777405,67.994881 161.166931,67.994881 
	C161.166931,71.857529 161.166931,75.222366 161.166931,79.194901 
	C167.652466,79.194901 174.043884,79.194901 180.721924,79.194901 
	C180.721924,82.060188 180.721924,84.330208 180.263763,86.637779 
	C179.525970,86.812271 179.246323,86.949219 178.966690,87.086166 
	C170.015976,87.086174 161.065262,87.086174 151.474869,87.086174 
	C151.474869,72.907509 151.474869,58.987442 151.803955,44.496101 
	C152.230621,43.791195 152.435089,43.569965 152.408768,43.537846 
	C152.205811,43.290134 151.958130,43.079052 151.724335,42.856613 
z"/>
<path fill="#5BAE73" opacity="1.000000" stroke="none" 
	d="
M110.940704,57.979710 
	C110.935905,57.808586 110.931099,57.637466 111.275848,57.088825 
	C111.759270,55.810398 111.893150,54.909485 112.027031,54.008575 
	C114.777901,45.762962 121.252586,42.605434 129.196976,41.892929 
	C133.595673,41.498425 138.058792,41.822189 142.827164,41.822189 
	C142.827164,45.020535 142.827164,47.264088 142.827164,49.608162 
	C139.689896,49.608162 136.444336,49.507175 133.206955,49.626930 
	C123.140854,49.999283 119.073906,55.535976 119.936607,67.562035 
	C120.586800,76.625648 125.428131,80.500481 135.846130,79.588776 
	C135.846130,75.757095 135.846130,71.839195 136.363174,67.463394 
	C139.276230,67.005104 141.672226,67.004700 144.068237,67.004295 
	C144.115128,73.026657 144.162018,79.049011 143.657440,85.533218 
	C137.727890,86.350853 132.349838,86.706650 126.971771,87.062454 
	C118.339203,85.988083 112.942650,81.299065 111.247253,72.168304 
	C111.114632,70.378693 110.728912,69.179306 110.343185,67.979919 
	C110.287651,65.944626 110.232109,63.909328 110.569260,61.369568 
	C110.954872,59.903305 110.947792,58.941505 110.940704,57.979710 
z"/>
<path fill="#5CAF74" opacity="1.000000" stroke="none" 
	d="
M246.981659,87.060150 
	C245.277756,87.122742 243.573868,87.185349 241.327332,86.914230 
	C240.481094,86.371849 240.177475,86.163200 239.873871,85.954552 
	C239.873871,74.206451 239.873871,62.458344 239.873871,50.209908 
	C235.020172,50.209908 230.945526,50.209908 226.574783,50.209908 
	C226.574783,47.310349 226.574783,44.918247 226.574783,42.269478 
	C238.370529,42.269478 249.917160,42.269478 261.756287,42.269478 
	C261.756287,44.859661 261.756287,47.247929 261.756287,50.212017 
	C257.519196,50.212017 253.453156,50.212017 248.728210,50.212017 
	C248.728210,62.700954 248.728210,74.623123 248.262421,86.602005 
	C247.524979,86.792519 247.253326,86.926338 246.981659,87.060150 
z"/>
<path fill="#0C3C1E" opacity="1.000000" stroke="none" 
	d="
M384.394531,83.713974 
	C383.893707,83.622932 383.166901,83.110558 383.169830,82.602379 
	C383.244812,69.543839 383.395935,56.485744 383.875824,43.159626 
	C384.314758,56.359318 384.411682,69.826950 384.394531,83.713974 
z"/>
<path fill="#54AC6E" opacity="1.000000" stroke="none" 
	d="
M127.316223,87.300720 
	C132.349838,86.706650 137.727890,86.350853 143.577011,85.995636 
	C138.853348,89.354454 133.210159,87.949051 127.316223,87.300720 
z"/>
<path fill="#0F3D1F" opacity="1.000000" stroke="none" 
	d="
M348.846436,85.372665 
	C351.363647,84.454247 353.881714,83.936691 356.715332,83.204056 
	C357.579071,85.250519 357.272797,86.836250 354.362427,86.443169 
	C352.527405,86.195312 350.685883,85.995102 348.846436,85.372665 
z"/>
<path fill="#54AC6E" opacity="1.000000" stroke="none" 
	d="
M144.051514,66.608597 
	C141.672226,67.004700 139.276230,67.005104 136.432220,67.003311 
	C138.398422,63.987469 141.208694,65.019356 144.051514,66.608597 
z"/>
<path fill="#67B47D" opacity="1.000000" stroke="none" 
	d="
M110.266479,68.324348 
	C110.728912,69.179306 111.114632,70.378693 111.248108,71.789795 
	C110.727173,70.890602 110.458473,69.779694 110.266479,68.324348 
z"/>
<path fill="#67B47D" opacity="1.000000" stroke="none" 
	d="
M110.757912,58.244953 
	C110.947792,58.941505 110.954872,59.903305 110.668854,60.943405 
	C110.442207,60.184536 110.508659,59.347366 110.757912,58.244953 
z"/>
<path fill="#0F3D1F" opacity="1.000000" stroke="none" 
	d="
M357.115051,63.590485 
	C356.865967,62.153877 356.697601,60.296577 356.845673,58.235958 
	C357.173309,59.745022 357.184509,61.457409 357.115051,63.590485 
z"/>
<path fill="#67B47D" opacity="1.000000" stroke="none" 
	d="
M111.818466,54.254341 
	C111.893150,54.909485 111.759270,55.810398 111.367874,56.849098 
	C111.276871,56.157959 111.443382,55.329033 111.818466,54.254341 
z"/>
<path fill="#184327" opacity="1.000000" stroke="none" 
	d="
M274.290497,86.527298 
	C275.212830,86.229370 276.548645,86.096146 278.066162,86.336212 
	C277.066559,86.703682 275.885254,86.697853 274.290497,86.527298 
z"/>
<path fill="#0C3C1E" opacity="1.000000" stroke="none" 
	d="
M379.316284,86.282196 
	C379.855896,85.990158 380.782898,85.798088 381.893097,85.890106 
	C381.285431,86.243530 380.494507,86.312843 379.316284,86.282196 
z"/>
<path fill="#4CA868" opacity="1.000000" stroke="none" 
	d="
M194.272919,87.071899 
	C194.154297,86.800461 194.336121,86.518234 194.746033,86.122108 
	C194.840530,86.359177 194.706955,86.710144 194.272919,87.071899 
z"/>
<path fill="#4BA868" opacity="1.000000" stroke="none" 
	d="
M179.230896,87.131668 
	C179.246323,86.949219 179.525970,86.812271 179.906982,86.848709 
	C179.837265,87.073784 179.666183,87.125473 179.230896,87.131668 
z"/>
<path fill="#4AA766" opacity="1.000000" stroke="none" 
	d="
M212.798248,86.360809 
	C213.019394,86.239410 213.372284,86.401688 213.877594,86.817505 
	C213.663345,86.928856 213.296677,86.786667 212.798248,86.360809 
z"/>
<path fill="#4AA766" opacity="1.000000" stroke="none" 
	d="
M239.889389,86.281593 
	C240.177475,86.163200 240.481094,86.371849 240.907715,86.832184 
	C240.655441,86.925461 240.280182,86.767044 239.889389,86.281593 
z"/>
<path fill="#184327" opacity="1.000000" stroke="none" 
	d="
M273.801422,42.395077 
	C273.803040,42.655365 273.481506,42.884426 273.031616,42.889473 
	C273.094879,42.564926 273.286560,42.464386 273.801422,42.395077 
z"/>
<path fill="#4AA766" opacity="1.000000" stroke="none" 
	d="
M247.240097,87.111435 
	C247.253326,86.926338 247.524979,86.792519 247.896378,86.823982 
	C247.830261,87.047089 247.664398,87.104912 247.240097,87.111435 
z"/>
<path fill="#0C3C1E" opacity="1.000000" stroke="none" 
	d="
M374.820343,85.394760 
	C375.065247,85.265251 375.419556,85.450882 375.920502,85.903351 
	C375.687988,86.016762 375.308899,85.863327 374.820343,85.394760 
z"/>
<path fill="#184327" opacity="1.000000" stroke="none" 
	d="
M270.028503,85.312637 
	C270.389343,85.105827 270.644653,85.301361 270.917480,85.823875 
	C270.674072,85.905823 270.336731,85.760529 270.028503,85.312637 
z"/>
<path fill="#4BA868" opacity="1.000000" stroke="none" 
	d="
M151.652527,43.183659 
	C151.958130,43.079052 152.205811,43.290134 152.408768,43.537846 
	C152.435089,43.569965 152.230621,43.791195 151.912048,44.048031 
	C151.654251,43.951054 151.617477,43.730877 151.652527,43.183659 
z"/>
<path fill="#4CA868" opacity="1.000000" stroke="none" 
	d="
M186.712097,43.213936 
	C187.007904,43.124523 187.234528,43.319065 187.422195,43.545849 
	C187.444260,43.572502 187.252060,43.776447 186.949799,44.002495 
	C186.704010,43.907040 186.667633,43.707294 186.712097,43.213936 
z"/>
<path fill="#4DA969" opacity="1.000000" stroke="none" 
	d="
M213.950089,43.253677 
	C214.189423,43.177917 214.373688,43.339249 214.515945,43.531643 
	C214.540894,43.565414 214.389618,43.729477 214.150604,43.919533 
	C213.947906,43.837578 213.914337,43.669449 213.950089,43.253677 
z"/>
<path fill="#4AA766" opacity="1.000000" stroke="none" 
	d="
M222.197678,43.777946 
	C222.007263,43.759666 221.867889,43.465996 221.911560,43.068165 
	C222.145996,43.143520 222.197357,43.323040 222.197678,43.777946 
z"/>
<path fill="#184327" opacity="1.000000" stroke="none" 
	d="
M270.710724,42.973930 
	C270.923157,43.297253 270.753784,43.562225 270.282745,43.878323 
	C270.184998,43.647728 270.300964,43.309772 270.710724,42.973930 
z"/>
<path fill="#0F3D1F" opacity="1.000000" stroke="none" 
	d="
M348.817078,43.239540 
	C349.113525,43.163280 349.315674,43.340702 349.485535,43.544979 
	C349.503021,43.566025 349.327789,43.747337 349.055969,43.947594 
	C348.817780,43.860901 348.765656,43.680893 348.817078,43.239540 
z"/>
<path fill="#F4F6F5" opacity="1.000000" stroke="none" 
	d="
M278.959167,74.911995 
	C278.958771,72.304077 278.958771,70.161522 278.958771,67.401344 
	C284.004425,67.860565 289.318115,65.749794 292.998260,70.317322 
	C294.115204,71.703629 294.243866,75.158478 293.283752,76.715294 
	C289.971069,82.086906 284.496613,79.732452 279.251526,79.747108 
	C279.149261,78.216187 279.054413,76.796776 278.959167,74.911995 
z"/>
<path fill="#F9FAF9" opacity="1.000000" stroke="none" 
	d="
M280.223236,48.997520 
	C282.997986,48.871948 285.336700,48.641766 287.627533,48.877361 
	C290.788605,49.202446 292.874023,50.870468 292.837982,54.366024 
	C292.802979,57.762962 290.957031,59.644703 287.685089,59.906349 
	C285.050964,60.116989 282.386566,59.948997 278.785675,59.948997 
	C279.111206,56.346088 279.438538,52.723354 280.223236,48.997520 
z"/>
<path fill="#F7FAF8" opacity="1.000000" stroke="none" 
	d="
M93.035675,62.568436 
	C89.724304,62.949921 86.795479,63.151299 83.517456,63.376690 
	C83.517456,58.379517 83.517456,53.996452 83.517456,49.257324 
	C88.242546,48.981094 93.263573,47.279522 96.044807,52.520733 
	C97.977333,56.162598 97.588547,59.977909 93.035675,62.568436 
z"/>
<path fill="#F1F3F1" opacity="1.000000" stroke="none" 
	d="
M322.047852,67.009552 
	C321.052155,66.031738 319.888306,64.905190 320.081573,64.107376 
	C321.288544,59.124630 322.798828,54.215351 324.592560,47.938126 
	C326.560699,54.980526 328.179749,60.773769 329.923370,67.012802 
	C327.122650,67.012802 324.814880,67.012802 322.047852,67.009552 
z"/>
<path fill="#F5F9F6" opacity="1.000000" stroke="none" 
	d="
M45.467140,64.591248 
	C46.976540,59.329338 48.352467,54.469875 49.728390,49.610413 
	C50.026154,49.639511 50.323914,49.668610 50.621677,49.697712 
	C52.143726,55.328781 53.665779,60.959850 55.374298,67.280785 
	C52.108700,67.280785 49.488449,67.417610 46.903404,67.176659 
	C46.317425,67.122040 45.853676,65.756065 45.467140,64.591248 
z"/>
</svg>